<svg xmlns="http://www.w3.org/2000/svg" xmlns:xlink="http://www.w3.org/1999/xlink" width="567" zoomAndPan="magnify" viewBox="0 0 425.25 283.500005" height="378" preserveAspectRatio="xMidYMid meet" version="1.0"><defs><clipPath id="044fb6a2ad"><path d="M 0.21875 0 L 392.574219 0 L 392.574219 283 L 0.21875 283 Z M 0.21875 0 " clip-rule="nonzero"/></clipPath><clipPath id="84435c0caa"><path d="M 0.21875 87 L 392.574219 87 L 392.574219 196 L 0.21875 196 Z M 0.21875 87 " clip-rule="nonzero"/></clipPath><clipPath id="7dfafc3d1d"><path d="M 0.21875 0 L 392.574219 0 L 392.574219 88 L 0.21875 88 Z M 0.21875 0 " clip-rule="nonzero"/></clipPath><clipPath id="3261c2cb6a"><rect x="0" width="393" y="0" height="283"/></clipPath></defs><g transform="matrix(1, 0, 0, 1, 16, 0.000000000000005262)"><g clip-path="url(#3261c2cb6a)"><g clip-path="url(#044fb6a2ad)"><path fill="#141414" d="M 392.457031 239.492188 C 392.457031 263.539062 372.949219 283.035156 348.886719 283.035156 L 43.902344 283.035156 C 19.84375 283.035156 0.332031 263.539062 0.332031 239.492188 L 0.332031 43.542969 C 0.332031 19.496094 19.84375 0 43.902344 0 L 348.886719 0 C 372.949219 0 392.457031 19.496094 392.457031 43.542969 Z M 392.457031 239.492188 " fill-opacity="1" fill-rule="nonzero"/></g><g clip-path="url(#84435c0caa)"><path fill="#eeeeee" d="M 0.332031 87.089844 L 392.457031 87.089844 L 392.457031 195.949219 L 0.332031 195.949219 Z M 0.332031 87.089844 " fill-opacity="1" fill-rule="nonzero"/></g><g clip-path="url(#7dfafc3d1d)"><path fill="#ce1225" d="M 348.886719 0 L 43.902344 0 C 19.84375 0 0.332031 19.496094 0.332031 43.542969 L 0.332031 87.089844 L 392.457031 87.089844 L 392.457031 43.542969 C 392.457031 19.496094 372.949219 0 348.886719 0 Z M 348.886719 0 " fill-opacity="1" fill-rule="nonzero"/></g><path fill="#bf9300" d="M 160.996094 180.292969 C 160.996094 180.292969 161.171875 183.015625 163.542969 184.375 C 163.542969 184.375 162.871094 186.421875 165.417969 187.609375 C 167.96875 188.796875 177.160156 190.667969 193.160156 190.667969 C 209.160156 190.667969 218.179688 188.96875 220.566406 187.773438 C 222.953125 186.585938 223.113281 183.863281 223.113281 183.863281 C 223.113281 183.863281 225.664062 182.503906 225.5 180.804688 C 225.324219 179.109375 221.925781 177.234375 221.925781 177.234375 C 221.925781 177.234375 221.078125 175.023438 218.691406 174.175781 C 216.308594 173.328125 208.648438 177.921875 194.011719 177.234375 C 179.371094 176.558594 171.039062 174.339844 168.316406 174.511719 C 165.59375 174.6875 164.40625 177.410156 164.40625 177.410156 C 164.40625 177.410156 161.332031 178.769531 160.996094 180.292969 Z M 160.996094 180.292969 " fill-opacity="1" fill-rule="nonzero"/><path fill="#eeeeee" d="M 162.871094 180.128906 C 162.726562 181.144531 164.917969 183.363281 164.917969 183.363281 C 164.917969 183.363281 164.917969 185.910156 167.128906 186.597656 C 169.339844 187.28125 178.359375 188.980469 192.996094 188.808594 C 207.636719 188.632812 218.015625 187.785156 219.203125 186.761719 C 220.390625 185.738281 221.414062 183.527344 221.414062 183.527344 C 221.414062 183.527344 223.800781 181.828125 223.625 180.46875 C 223.453125 179.109375 220.054688 178.257812 220.054688 178.257812 C 220.054688 178.257812 219.09375 176.210938 217.960938 175.363281 C 216.828125 174.511719 209.511719 178.757812 193.847656 178.757812 C 178.523438 178.757812 169.675781 175.015625 168.152344 175.1875 C 166.617188 175.363281 165.601562 178.246094 165.601562 178.246094 C 165.601562 178.246094 163.042969 178.945312 162.871094 180.128906 Z M 162.871094 180.128906 " fill-opacity="1" fill-rule="nonzero"/><path fill="#bf9300" d="M 227.535156 114.128906 C 227.535156 114.128906 227.199219 106.136719 219.878906 107.152344 C 212.558594 108.175781 212.046875 111.746094 204.214844 112.59375 L 202.605469 112.746094 C 201.429688 109.644531 200.46875 105.160156 200.46875 101.707031 C 200.46875 96.601562 202.003906 94.394531 196.722656 91.84375 C 191.449219 89.296875 190.425781 91.671875 190.425781 91.671875 C 190.425781 91.671875 186.34375 89.625 184.46875 91.160156 C 182.59375 92.695312 183.621094 96.601562 184.46875 95.414062 C 185.320312 94.230469 188.726562 97.625 188.726562 97.625 C 189.882812 103.277344 186.605469 109.394531 184.359375 112.800781 C 183.585938 112.726562 182.964844 112.691406 182.09375 112.59375 C 174.261719 111.746094 173.75 108.175781 166.429688 107.152344 C 159.113281 106.128906 158.773438 114.128906 158.773438 114.128906 L 155.875 175.875 L 161.835938 171.28125 L 161.867188 170.550781 L 174.261719 159.546875 L 176.332031 157.476562 L 171.203125 172.46875 C 171.203125 172.46875 163.371094 171.957031 165.582031 178.246094 C 165.582031 178.246094 166.769531 174.675781 168.816406 175.351562 C 170.863281 176.027344 176.8125 177.5625 176.8125 177.5625 L 178.859375 180.792969 L 181.40625 178.410156 L 189.402344 178.074219 C 189.402344 178.074219 191.953125 178.75 191.789062 180.96875 C 192.320312 179.738281 192.386719 178.726562 192.191406 177.886719 L 194.597656 177.726562 C 194.359375 178.597656 194.402344 179.664062 194.96875 180.980469 C 194.792969 178.769531 197.355469 178.085938 197.355469 178.085938 L 205.347656 178.421875 L 207.910156 180.804688 L 209.957031 177.574219 C 209.957031 177.574219 215.902344 176.039062 217.941406 175.363281 C 219.976562 174.6875 221.175781 178.257812 221.175781 178.257812 C 223.386719 171.964844 215.554688 172.476562 215.554688 172.476562 L 210.664062 158.183594 L 212.039062 159.554688 L 224.433594 170.5625 L 224.464844 171.292969 L 230.421875 175.886719 Z M 193.695312 151.554688 C 181.417969 143.976562 180.40625 124.851562 180.40625 124.851562 C 180.40625 124.851562 187.996094 124.460938 193.507812 120.59375 C 198.476562 125.003906 206.949219 124.503906 206.949219 124.503906 C 206.949219 124.503906 206.375 143.707031 193.695312 151.554688 Z M 221.753906 111.753906 L 211.371094 121.617188 L 209.628906 122.316406 C 207.84375 122.378906 199.152344 122.402344 193.671875 117.535156 C 186.863281 122.304688 177.507812 122.640625 177.507812 122.640625 L 176.058594 122.066406 L 164.570312 111.753906 L 161.550781 112.996094 C 161.683594 111.765625 162.355469 109 166.105469 109.546875 C 172.246094 110.425781 174.785156 113.800781 181.253906 114.476562 L 183.085938 114.664062 L 182.441406 115.488281 C 183.445312 115.488281 184.925781 115.195312 186.015625 114.957031 L 187.246094 115.074219 L 186.691406 117.015625 C 187.5625 116.753906 188.824219 116 189.859375 115.335938 L 192.691406 115.609375 L 193.335938 116.503906 L 195.492188 115.425781 L 196.941406 115.28125 C 198.191406 116.011719 199.980469 116.664062 199.980469 116.664062 L 200.316406 114.96875 C 201.851562 115.992188 204.402344 115.992188 204.402344 115.992188 C 204.109375 115.75 203.8125 115.140625 203.507812 114.617188 L 205.078125 114.457031 C 211.546875 113.78125 214.074219 110.40625 220.226562 109.523438 C 223.976562 108.992188 224.652344 111.746094 224.78125 112.976562 Z M 221.753906 111.753906 " fill-opacity="1" fill-rule="nonzero"/><path fill="#eeeeee" d="M 189.589844 151.21875 L 183.457031 174.511719 L 173.25 172.476562 L 183.804688 142.542969 Z M 197.203125 151.21875 L 203.324219 174.511719 L 213.539062 172.476562 L 202.984375 142.542969 Z M 197.203125 151.21875 " fill-opacity="1" fill-rule="nonzero"/><path fill="#bf9300" d="M 182.953125 126.722656 C 182.953125 126.722656 183.804688 136.585938 188.226562 144.238281 L 188.226562 124.515625 C 188.226562 124.515625 185.328125 126.210938 182.953125 126.722656 Z M 204.226562 127.0625 C 204.226562 127.0625 203.378906 136.925781 198.957031 144.578125 L 198.957031 124.851562 C 198.945312 124.851562 201.84375 126.550781 204.226562 127.0625 Z M 204.226562 127.0625 " fill-opacity="1" fill-rule="nonzero"/><path fill="#eeeeee" d="M 184.992188 93.378906 C 184.992188 93.378906 186.179688 92.195312 189.589844 94.566406 C 191.800781 96.113281 193.761719 97.289062 193.761719 97.289062 C 193.761719 97.289062 195.152344 95.820312 197.203125 96.15625 C 199.25 96.492188 198.105469 99.335938 198.445312 105.277344 C 198.78125 111.234375 201.167969 113.78125 201.167969 113.78125 L 198.269531 112.082031 L 198.445312 113.953125 L 195.207031 112.417969 L 193.671875 114.628906 L 192.136719 112.246094 L 189.652344 113.757812 L 188.902344 111.734375 L 186.003906 113.269531 C 186.003906 113.269531 190.261719 108 190.601562 102.207031 C 190.699219 100.476562 190.261719 96.589844 190.261719 96.589844 C 190.261719 96.589844 187.550781 93.207031 184.992188 93.378906 Z M 184.992188 93.378906 " fill-opacity="1" fill-rule="nonzero"/><path fill="#bf9300" d="M 169.675781 181.316406 C 167.726562 182.480469 168.488281 183.191406 169.675781 183.703125 C 170.863281 184.214844 178.007812 185.074219 192.484375 185.398438 C 207.289062 185.738281 216.480469 184.039062 217.667969 183.351562 C 218.855469 182.679688 219.03125 181.480469 216.992188 181.144531 C 214.945312 180.804688 204.738281 182.503906 192.3125 182.503906 C 176.996094 182.515625 170.527344 180.804688 169.675781 181.316406 Z M 169.675781 181.316406 " fill-opacity="1" fill-rule="nonzero"/></g></g></svg>